<?xml version="1.0" encoding="utf-8" standalone="no"?>
<!DOCTYPE svg PUBLIC "-//W3C//DTD SVG 1.1//EN"
  "http://www.w3.org/Graphics/SVG/1.1/DTD/svg11.dtd">
<!-- Created with matplotlib (https://matplotlib.org/) -->
<svg height="331.674375pt" version="1.1" viewBox="0 0 570.01875 331.674375" width="570.01875pt" xmlns="http://www.w3.org/2000/svg" xmlns:xlink="http://www.w3.org/1999/xlink">
 <defs>
  <style type="text/css">
*{stroke-linecap:butt;stroke-linejoin:round;}
  </style>
 </defs>
 <g id="figure_1">
  <g id="patch_1">
   <path d="M 0 331.674375 
L 570.01875 331.674375 
L 570.01875 0 
L 0 0 
z
" style="fill:#ffffff;"/>
  </g>
  <g id="axes_1">
   <g id="patch_2">
    <path d="M 40.034375 294.118125 
L 486.434375 294.118125 
L 486.434375 22.318125 
L 40.034375 22.318125 
z
" style="fill:#ffffff;"/>
   </g>
   <g id="matplotlib.axis_1">
    <g id="xtick_1">
     <g id="line2d_1">
      <defs>
       <path d="M 0 0 
L 0 3.5 
" id="m38dc462bb3" style="stroke:#000000;stroke-width:0.8;"/>
      </defs>
      <g>
       <use style="stroke:#000000;stroke-width:0.8;" x="103.805804" xlink:href="#m38dc462bb3" y="294.118125"/>
      </g>
     </g>
     <g id="text_1">
      <!-- 100 -->
      <defs>
       <path d="M 12.40625 8.296875 
L 28.515625 8.296875 
L 28.515625 63.921875 
L 10.984375 60.40625 
L 10.984375 69.390625 
L 28.421875 72.90625 
L 38.28125 72.90625 
L 38.28125 8.296875 
L 54.390625 8.296875 
L 54.390625 0 
L 12.40625 0 
z
" id="DejaVuSans-49"/>
       <path d="M 31.78125 66.40625 
Q 24.171875 66.40625 20.328125 58.90625 
Q 16.5 51.421875 16.5 36.375 
Q 16.5 21.390625 20.328125 13.890625 
Q 24.171875 6.390625 31.78125 6.390625 
Q 39.453125 6.390625 43.28125 13.890625 
Q 47.125 21.390625 47.125 36.375 
Q 47.125 51.421875 43.28125 58.90625 
Q 39.453125 66.40625 31.78125 66.40625 
z
M 31.78125 74.21875 
Q 44.046875 74.21875 50.515625 64.515625 
Q 56.984375 54.828125 56.984375 36.375 
Q 56.984375 17.96875 50.515625 8.265625 
Q 44.046875 -1.421875 31.78125 -1.421875 
Q 19.53125 -1.421875 13.0625 8.265625 
Q 6.59375 17.96875 6.59375 36.375 
Q 6.59375 54.828125 13.0625 64.515625 
Q 19.53125 74.21875 31.78125 74.21875 
z
" id="DejaVuSans-48"/>
      </defs>
      <g transform="translate(94.262054 308.716563)scale(0.1 -0.1)">
       <use xlink:href="#DejaVuSans-49"/>
       <use x="63.623047" xlink:href="#DejaVuSans-48"/>
       <use x="127.246094" xlink:href="#DejaVuSans-48"/>
      </g>
     </g>
    </g>
    <g id="xtick_2">
     <g id="line2d_2">
      <g>
       <use style="stroke:#000000;stroke-width:0.8;" x="194.390219" xlink:href="#m38dc462bb3" y="294.118125"/>
      </g>
     </g>
     <g id="text_2">
      <!-- 200 -->
      <defs>
       <path d="M 19.1875 8.296875 
L 53.609375 8.296875 
L 53.609375 0 
L 7.328125 0 
L 7.328125 8.296875 
Q 12.9375 14.109375 22.625 23.890625 
Q 32.328125 33.6875 34.8125 36.53125 
Q 39.546875 41.84375 41.421875 45.53125 
Q 43.3125 49.21875 43.3125 52.78125 
Q 43.3125 58.59375 39.234375 62.25 
Q 35.15625 65.921875 28.609375 65.921875 
Q 23.96875 65.921875 18.8125 64.3125 
Q 13.671875 62.703125 7.8125 59.421875 
L 7.8125 69.390625 
Q 13.765625 71.78125 18.9375 73 
Q 24.125 74.21875 28.421875 74.21875 
Q 39.75 74.21875 46.484375 68.546875 
Q 53.21875 62.890625 53.21875 53.421875 
Q 53.21875 48.921875 51.53125 44.890625 
Q 49.859375 40.875 45.40625 35.40625 
Q 44.1875 33.984375 37.640625 27.21875 
Q 31.109375 20.453125 19.1875 8.296875 
z
" id="DejaVuSans-50"/>
      </defs>
      <g transform="translate(184.846469 308.716563)scale(0.1 -0.1)">
       <use xlink:href="#DejaVuSans-50"/>
       <use x="63.623047" xlink:href="#DejaVuSans-48"/>
       <use x="127.246094" xlink:href="#DejaVuSans-48"/>
      </g>
     </g>
    </g>
    <g id="xtick_3">
     <g id="line2d_3">
      <g>
       <use style="stroke:#000000;stroke-width:0.8;" x="284.974635" xlink:href="#m38dc462bb3" y="294.118125"/>
      </g>
     </g>
     <g id="text_3">
      <!-- 300 -->
      <defs>
       <path d="M 40.578125 39.3125 
Q 47.65625 37.796875 51.625 33 
Q 55.609375 28.21875 55.609375 21.1875 
Q 55.609375 10.40625 48.1875 4.484375 
Q 40.765625 -1.421875 27.09375 -1.421875 
Q 22.515625 -1.421875 17.65625 -0.515625 
Q 12.796875 0.390625 7.625 2.203125 
L 7.625 11.71875 
Q 11.71875 9.328125 16.59375 8.109375 
Q 21.484375 6.890625 26.8125 6.890625 
Q 36.078125 6.890625 40.9375 10.546875 
Q 45.796875 14.203125 45.796875 21.1875 
Q 45.796875 27.640625 41.28125 31.265625 
Q 36.765625 34.90625 28.71875 34.90625 
L 20.21875 34.90625 
L 20.21875 43.015625 
L 29.109375 43.015625 
Q 36.375 43.015625 40.234375 45.921875 
Q 44.09375 48.828125 44.09375 54.296875 
Q 44.09375 59.90625 40.109375 62.90625 
Q 36.140625 65.921875 28.71875 65.921875 
Q 24.65625 65.921875 20.015625 65.03125 
Q 15.375 64.15625 9.8125 62.3125 
L 9.8125 71.09375 
Q 15.4375 72.65625 20.34375 73.4375 
Q 25.25 74.21875 29.59375 74.21875 
Q 40.828125 74.21875 47.359375 69.109375 
Q 53.90625 64.015625 53.90625 55.328125 
Q 53.90625 49.265625 50.4375 45.09375 
Q 46.96875 40.921875 40.578125 39.3125 
z
" id="DejaVuSans-51"/>
      </defs>
      <g transform="translate(275.430885 308.716563)scale(0.1 -0.1)">
       <use xlink:href="#DejaVuSans-51"/>
       <use x="63.623047" xlink:href="#DejaVuSans-48"/>
       <use x="127.246094" xlink:href="#DejaVuSans-48"/>
      </g>
     </g>
    </g>
    <g id="xtick_4">
     <g id="line2d_4">
      <g>
       <use style="stroke:#000000;stroke-width:0.8;" x="375.55905" xlink:href="#m38dc462bb3" y="294.118125"/>
      </g>
     </g>
     <g id="text_4">
      <!-- 400 -->
      <defs>
       <path d="M 37.796875 64.3125 
L 12.890625 25.390625 
L 37.796875 25.390625 
z
M 35.203125 72.90625 
L 47.609375 72.90625 
L 47.609375 25.390625 
L 58.015625 25.390625 
L 58.015625 17.1875 
L 47.609375 17.1875 
L 47.609375 0 
L 37.796875 0 
L 37.796875 17.1875 
L 4.890625 17.1875 
L 4.890625 26.703125 
z
" id="DejaVuSans-52"/>
      </defs>
      <g transform="translate(366.0153 308.716563)scale(0.1 -0.1)">
       <use xlink:href="#DejaVuSans-52"/>
       <use x="63.623047" xlink:href="#DejaVuSans-48"/>
       <use x="127.246094" xlink:href="#DejaVuSans-48"/>
      </g>
     </g>
    </g>
    <g id="xtick_5">
     <g id="line2d_5">
      <g>
       <use style="stroke:#000000;stroke-width:0.8;" x="466.143466" xlink:href="#m38dc462bb3" y="294.118125"/>
      </g>
     </g>
     <g id="text_5">
      <!-- 500 -->
      <defs>
       <path d="M 10.796875 72.90625 
L 49.515625 72.90625 
L 49.515625 64.59375 
L 19.828125 64.59375 
L 19.828125 46.734375 
Q 21.96875 47.46875 24.109375 47.828125 
Q 26.265625 48.1875 28.421875 48.1875 
Q 40.625 48.1875 47.75 41.5 
Q 54.890625 34.8125 54.890625 23.390625 
Q 54.890625 11.625 47.5625 5.09375 
Q 40.234375 -1.421875 26.90625 -1.421875 
Q 22.3125 -1.421875 17.546875 -0.640625 
Q 12.796875 0.140625 7.71875 1.703125 
L 7.71875 11.625 
Q 12.109375 9.234375 16.796875 8.0625 
Q 21.484375 6.890625 26.703125 6.890625 
Q 35.15625 6.890625 40.078125 11.328125 
Q 45.015625 15.765625 45.015625 23.390625 
Q 45.015625 31 40.078125 35.4375 
Q 35.15625 39.890625 26.703125 39.890625 
Q 22.75 39.890625 18.8125 39.015625 
Q 14.890625 38.140625 10.796875 36.28125 
z
" id="DejaVuSans-53"/>
      </defs>
      <g transform="translate(456.599716 308.716563)scale(0.1 -0.1)">
       <use xlink:href="#DejaVuSans-53"/>
       <use x="63.623047" xlink:href="#DejaVuSans-48"/>
       <use x="127.246094" xlink:href="#DejaVuSans-48"/>
      </g>
     </g>
    </g>
    <g id="text_6">
     <!-- Tempo -->
     <defs>
      <path d="M -0.296875 72.90625 
L 61.375 72.90625 
L 61.375 64.59375 
L 35.5 64.59375 
L 35.5 0 
L 25.59375 0 
L 25.59375 64.59375 
L -0.296875 64.59375 
z
" id="DejaVuSans-84"/>
      <path d="M 56.203125 29.59375 
L 56.203125 25.203125 
L 14.890625 25.203125 
Q 15.484375 15.921875 20.484375 11.0625 
Q 25.484375 6.203125 34.421875 6.203125 
Q 39.59375 6.203125 44.453125 7.46875 
Q 49.3125 8.734375 54.109375 11.28125 
L 54.109375 2.78125 
Q 49.265625 0.734375 44.1875 -0.34375 
Q 39.109375 -1.421875 33.890625 -1.421875 
Q 20.796875 -1.421875 13.15625 6.1875 
Q 5.515625 13.8125 5.515625 26.8125 
Q 5.515625 40.234375 12.765625 48.109375 
Q 20.015625 56 32.328125 56 
Q 43.359375 56 49.78125 48.890625 
Q 56.203125 41.796875 56.203125 29.59375 
z
M 47.21875 32.234375 
Q 47.125 39.59375 43.09375 43.984375 
Q 39.0625 48.390625 32.421875 48.390625 
Q 24.90625 48.390625 20.390625 44.140625 
Q 15.875 39.890625 15.1875 32.171875 
z
" id="DejaVuSans-101"/>
      <path d="M 52 44.1875 
Q 55.375 50.25 60.0625 53.125 
Q 64.75 56 71.09375 56 
Q 79.640625 56 84.28125 50.015625 
Q 88.921875 44.046875 88.921875 33.015625 
L 88.921875 0 
L 79.890625 0 
L 79.890625 32.71875 
Q 79.890625 40.578125 77.09375 44.375 
Q 74.3125 48.1875 68.609375 48.1875 
Q 61.625 48.1875 57.5625 43.546875 
Q 53.515625 38.921875 53.515625 30.90625 
L 53.515625 0 
L 44.484375 0 
L 44.484375 32.71875 
Q 44.484375 40.625 41.703125 44.40625 
Q 38.921875 48.1875 33.109375 48.1875 
Q 26.21875 48.1875 22.15625 43.53125 
Q 18.109375 38.875 18.109375 30.90625 
L 18.109375 0 
L 9.078125 0 
L 9.078125 54.6875 
L 18.109375 54.6875 
L 18.109375 46.1875 
Q 21.1875 51.21875 25.484375 53.609375 
Q 29.78125 56 35.6875 56 
Q 41.65625 56 45.828125 52.96875 
Q 50 49.953125 52 44.1875 
z
" id="DejaVuSans-109"/>
      <path d="M 18.109375 8.203125 
L 18.109375 -20.796875 
L 9.078125 -20.796875 
L 9.078125 54.6875 
L 18.109375 54.6875 
L 18.109375 46.390625 
Q 20.953125 51.265625 25.265625 53.625 
Q 29.59375 56 35.59375 56 
Q 45.5625 56 51.78125 48.09375 
Q 58.015625 40.1875 58.015625 27.296875 
Q 58.015625 14.40625 51.78125 6.484375 
Q 45.5625 -1.421875 35.59375 -1.421875 
Q 29.59375 -1.421875 25.265625 0.953125 
Q 20.953125 3.328125 18.109375 8.203125 
z
M 48.6875 27.296875 
Q 48.6875 37.203125 44.609375 42.84375 
Q 40.53125 48.484375 33.40625 48.484375 
Q 26.265625 48.484375 22.1875 42.84375 
Q 18.109375 37.203125 18.109375 27.296875 
Q 18.109375 17.390625 22.1875 11.75 
Q 26.265625 6.109375 33.40625 6.109375 
Q 40.53125 6.109375 44.609375 11.75 
Q 48.6875 17.390625 48.6875 27.296875 
z
" id="DejaVuSans-112"/>
      <path d="M 30.609375 48.390625 
Q 23.390625 48.390625 19.1875 42.75 
Q 14.984375 37.109375 14.984375 27.296875 
Q 14.984375 17.484375 19.15625 11.84375 
Q 23.34375 6.203125 30.609375 6.203125 
Q 37.796875 6.203125 41.984375 11.859375 
Q 46.1875 17.53125 46.1875 27.296875 
Q 46.1875 37.015625 41.984375 42.703125 
Q 37.796875 48.390625 30.609375 48.390625 
z
M 30.609375 56 
Q 42.328125 56 49.015625 48.375 
Q 55.71875 40.765625 55.71875 27.296875 
Q 55.71875 13.875 49.015625 6.21875 
Q 42.328125 -1.421875 30.609375 -1.421875 
Q 18.84375 -1.421875 12.171875 6.21875 
Q 5.515625 13.875 5.515625 27.296875 
Q 5.515625 40.765625 12.171875 48.375 
Q 18.84375 56 30.609375 56 
z
" id="DejaVuSans-111"/>
     </defs>
     <g transform="translate(246.85 322.394687)scale(0.1 -0.1)">
      <use xlink:href="#DejaVuSans-84"/>
      <use x="44.083984" xlink:href="#DejaVuSans-101"/>
      <use x="105.607422" xlink:href="#DejaVuSans-109"/>
      <use x="203.019531" xlink:href="#DejaVuSans-112"/>
      <use x="266.496094" xlink:href="#DejaVuSans-111"/>
     </g>
    </g>
   </g>
   <g id="matplotlib.axis_2">
    <g id="ytick_1">
     <g id="line2d_6">
      <defs>
       <path d="M 0 0 
L -3.5 0 
" id="mf052b62daa" style="stroke:#000000;stroke-width:0.8;"/>
      </defs>
      <g>
       <use style="stroke:#000000;stroke-width:0.8;" x="40.034375" xlink:href="#mf052b62daa" y="242.864134"/>
      </g>
     </g>
     <g id="text_7">
      <!-- -20% -->
      <defs>
       <path d="M 4.890625 31.390625 
L 31.203125 31.390625 
L 31.203125 23.390625 
L 4.890625 23.390625 
z
" id="DejaVuSans-45"/>
       <path d="M 72.703125 32.078125 
Q 68.453125 32.078125 66.03125 28.46875 
Q 63.625 24.859375 63.625 18.40625 
Q 63.625 12.0625 66.03125 8.421875 
Q 68.453125 4.78125 72.703125 4.78125 
Q 76.859375 4.78125 79.265625 8.421875 
Q 81.6875 12.0625 81.6875 18.40625 
Q 81.6875 24.8125 79.265625 28.4375 
Q 76.859375 32.078125 72.703125 32.078125 
z
M 72.703125 38.28125 
Q 80.421875 38.28125 84.953125 32.90625 
Q 89.5 27.546875 89.5 18.40625 
Q 89.5 9.28125 84.9375 3.921875 
Q 80.375 -1.421875 72.703125 -1.421875 
Q 64.890625 -1.421875 60.34375 3.921875 
Q 55.8125 9.28125 55.8125 18.40625 
Q 55.8125 27.59375 60.375 32.9375 
Q 64.9375 38.28125 72.703125 38.28125 
z
M 22.3125 68.015625 
Q 18.109375 68.015625 15.6875 64.375 
Q 13.28125 60.75 13.28125 54.390625 
Q 13.28125 47.953125 15.671875 44.328125 
Q 18.0625 40.71875 22.3125 40.71875 
Q 26.5625 40.71875 28.96875 44.328125 
Q 31.390625 47.953125 31.390625 54.390625 
Q 31.390625 60.6875 28.953125 64.34375 
Q 26.515625 68.015625 22.3125 68.015625 
z
M 66.40625 74.21875 
L 74.21875 74.21875 
L 28.609375 -1.421875 
L 20.796875 -1.421875 
z
M 22.3125 74.21875 
Q 30.03125 74.21875 34.609375 68.875 
Q 39.203125 63.53125 39.203125 54.390625 
Q 39.203125 45.171875 34.640625 39.84375 
Q 30.078125 34.515625 22.3125 34.515625 
Q 14.546875 34.515625 10.03125 39.859375 
Q 5.515625 45.21875 5.515625 54.390625 
Q 5.515625 63.484375 10.046875 68.84375 
Q 14.59375 74.21875 22.3125 74.21875 
z
" id="DejaVuSans-37"/>
      </defs>
      <g transform="translate(7.2 246.663353)scale(0.1 -0.1)">
       <use xlink:href="#DejaVuSans-45"/>
       <use x="36.083984" xlink:href="#DejaVuSans-50"/>
       <use x="99.707031" xlink:href="#DejaVuSans-48"/>
       <use x="163.330078" xlink:href="#DejaVuSans-37"/>
      </g>
     </g>
    </g>
    <g id="ytick_2">
     <g id="line2d_7">
      <g>
       <use style="stroke:#000000;stroke-width:0.8;" x="40.034375" xlink:href="#mf052b62daa" y="182.891869"/>
      </g>
     </g>
     <g id="text_8">
      <!-- 0% -->
      <g transform="translate(17.170313 186.691088)scale(0.1 -0.1)">
       <use xlink:href="#DejaVuSans-48"/>
       <use x="63.623047" xlink:href="#DejaVuSans-37"/>
      </g>
     </g>
    </g>
    <g id="ytick_3">
     <g id="line2d_8">
      <g>
       <use style="stroke:#000000;stroke-width:0.8;" x="40.034375" xlink:href="#mf052b62daa" y="122.919604"/>
      </g>
     </g>
     <g id="text_9">
      <!-- 20% -->
      <g transform="translate(10.807813 126.718823)scale(0.1 -0.1)">
       <use xlink:href="#DejaVuSans-50"/>
       <use x="63.623047" xlink:href="#DejaVuSans-48"/>
       <use x="127.246094" xlink:href="#DejaVuSans-37"/>
      </g>
     </g>
    </g>
    <g id="ytick_4">
     <g id="line2d_9">
      <g>
       <use style="stroke:#000000;stroke-width:0.8;" x="40.034375" xlink:href="#mf052b62daa" y="62.947339"/>
      </g>
     </g>
     <g id="text_10">
      <!-- 40% -->
      <g transform="translate(10.807813 66.746557)scale(0.1 -0.1)">
       <use xlink:href="#DejaVuSans-52"/>
       <use x="63.623047" xlink:href="#DejaVuSans-48"/>
       <use x="127.246094" xlink:href="#DejaVuSans-37"/>
      </g>
     </g>
    </g>
   </g>
   <g id="line2d_10">
    <path clip-path="url(#pd1eac05a36)" d="M 60.325284 257.647048 
L 61.231128 189.338731 
L 62.136972 169.840095 
L 63.042817 171.95564 
L 63.948661 213.51078 
L 64.854505 129.725805 
L 65.760349 196.575459 
L 66.666193 121.694744 
L 67.572037 230.938866 
L 68.477881 146.906565 
L 69.383726 234.447555 
L 70.28957 165.801677 
L 71.195414 198.926897 
L 72.101258 92.377562 
L 73.007102 221.274767 
L 73.912946 155.420917 
L 74.818791 169.675001 
L 75.724635 219.087522 
L 76.630479 189.054587 
L 77.536323 145.998242 
L 78.442167 208.961006 
L 79.348011 215.924303 
L 80.253856 167.627141 
L 81.1597 173.41416 
L 82.065544 153.434146 
L 82.971388 249.571413 
L 83.877232 154.92317 
L 84.783076 179.575201 
L 85.68892 148.804817 
L 86.594765 197.160012 
L 87.500609 162.800708 
L 88.406453 227.082388 
L 89.312297 157.419897 
L 90.218141 215.036894 
L 91.123985 155.04382 
L 92.02983 197.180766 
L 92.935674 180.785766 
L 93.841518 183.054193 
L 94.747362 143.413002 
L 95.653206 223.51391 
L 96.55905 94.486048 
L 97.464894 222.074982 
L 98.370739 240.600923 
L 99.276583 146.607645 
L 100.182427 185.676804 
L 101.088271 136.261145 
L 101.994115 213.538911 
L 102.899959 166.286706 
L 103.805804 179.329141 
L 104.711648 217.771843 
L 105.617492 134.588187 
L 106.523336 178.770723 
L 107.42918 163.316121 
L 108.335024 255.854568 
L 109.240869 138.512214 
L 110.146713 185.055918 
L 111.052557 141.155508 
L 111.958401 196.598553 
L 112.864245 204.192033 
L 113.770089 158.495279 
L 114.675933 209.442391 
L 115.581778 136.085443 
L 116.487622 253.653085 
L 117.393466 170.97533 
L 118.29931 147.205884 
L 119.205154 237.66419 
L 120.110998 132.711769 
L 121.016843 187.651304 
L 121.922687 223.215239 
L 122.828531 134.061878 
L 123.734375 213.212246 
L 124.640219 185.186683 
L 125.546063 171.112389 
L 126.451907 184.332471 
L 127.357752 192.780265 
L 128.263596 178.159908 
L 129.16944 185.123311 
L 130.075284 34.67267 
L 130.981128 262.305326 
L 131.886972 184.596645 
L 132.792817 186.058772 
L 133.698661 112.576221 
L 134.604505 190.879005 
L 135.510349 232.520219 
L 136.416193 213.325345 
L 137.322037 145.681838 
L 138.227881 109.220221 
L 139.133726 232.074158 
L 140.03957 199.635259 
L 140.945414 203.515416 
L 141.851258 157.157058 
L 142.757102 61.491626 
L 143.662946 281.76358 
L 144.568791 84.1534 
L 145.474635 207.505978 
L 146.380479 187.806674 
L 147.286323 189.202705 
L 148.192167 239.468936 
L 149.098011 146.805143 
L 150.003856 119.878182 
L 150.9097 207.347669 
L 151.815544 209.309364 
L 152.721388 85.592747 
L 153.627232 248.816795 
L 154.533076 201.831972 
L 155.43892 171.327824 
L 156.344765 202.544799 
L 157.250609 90.714779 
L 158.156453 246.744145 
L 159.062297 169.551356 
L 159.968141 194.261004 
L 160.873985 161.750196 
L 162.685674 190.087524 
L 163.591518 189.200361 
L 164.497362 195.355626 
L 165.403206 191.300318 
L 166.30905 164.11418 
L 167.214894 217.495875 
L 168.120739 158.445739 
L 169.026583 208.582308 
L 169.932427 166.964584 
L 170.838271 154.381257 
L 171.744115 135.122866 
L 172.649959 188.994702 
L 173.555804 185.023132 
L 174.461648 239.095042 
L 175.367492 126.453818 
L 176.273336 152.043363 
L 177.17918 245.133738 
L 178.085024 179.327883 
L 178.990869 165.669369 
L 179.896713 205.289364 
L 180.802557 171.599652 
L 181.708401 110.772503 
L 182.614245 260.629906 
L 183.520089 147.772013 
L 184.425933 171.511551 
L 185.331778 207.919635 
L 186.237622 183.953524 
L 187.143466 179.663509 
L 188.04931 202.041458 
L 188.955154 75.049847 
L 189.860998 243.925488 
L 190.766843 120.119716 
L 191.672687 208.612345 
L 192.578531 213.957856 
L 193.484375 198.80495 
L 194.390219 151.400108 
L 195.296063 165.547162 
L 196.201907 225.513556 
L 197.107752 131.953089 
L 198.013596 198.587301 
L 198.91944 101.470916 
L 199.825284 208.217087 
L 200.731128 179.550091 
L 201.636972 193.455846 
L 202.542817 213.459562 
L 203.448661 192.165119 
L 204.354505 158.150174 
L 205.260349 194.020914 
L 206.166193 124.661944 
L 207.072037 240.129251 
L 207.977881 161.578083 
L 208.883726 163.031668 
L 209.78957 240.955277 
L 210.695414 143.742883 
L 211.601258 178.240947 
L 212.507102 164.431428 
L 213.412946 153.797899 
L 214.318791 201.384307 
L 215.224635 192.18497 
L 216.130479 221.737442 
L 217.036323 167.210629 
L 217.942167 104.102948 
L 218.848011 223.535343 
L 219.753856 153.556704 
L 220.6597 230.879457 
L 221.565544 175.43134 
L 222.471388 166.670605 
L 223.377232 147.124831 
L 225.18892 245.383361 
L 226.094765 102.885095 
L 227.000609 222.384413 
L 227.906453 198.449075 
L 229.718141 126.910456 
L 230.623985 225.735908 
L 231.52983 114.058958 
L 232.435674 230.208476 
L 233.341518 134.677299 
L 234.247362 219.549218 
L 235.153206 152.933943 
L 236.05905 206.279442 
L 236.964894 164.014968 
L 237.870739 203.894799 
L 238.776583 161.523846 
L 239.682427 170.208715 
L 240.588271 227.50089 
L 241.494115 107.93517 
L 242.399959 231.992608 
L 243.305804 166.611788 
L 244.211648 162.046984 
L 245.117492 223.874488 
L 246.023336 174.033071 
L 246.92918 203.772122 
L 247.835024 189.426903 
L 248.740869 168.893814 
L 249.646713 190.107542 
L 250.552557 173.481468 
L 251.458401 186.31497 
L 252.364245 125.380163 
L 253.270089 206.024801 
L 254.175933 187.896021 
L 255.081778 204.148783 
L 255.987622 168.88159 
L 256.893466 200.211781 
L 257.79931 187.297469 
L 258.705154 172.511395 
L 259.610998 136.369634 
L 260.516843 232.291778 
L 261.422687 130.319192 
L 262.328531 216.3632 
L 263.234375 182.163228 
L 264.140219 181.545159 
L 265.046063 195.652103 
L 265.951907 183.254926 
L 266.857752 128.865755 
L 267.763596 187.117464 
L 268.66944 222.784221 
L 269.575284 137.588326 
L 270.481128 228.938276 
L 271.386972 176.007036 
L 272.292817 136.137367 
L 273.198661 233.315 
L 274.104505 128.790006 
L 275.010349 195.38297 
L 275.916193 215.684502 
L 276.822037 184.711613 
L 277.727881 168.117488 
L 278.633726 185.423946 
L 279.53957 196.842952 
L 280.445414 183.114658 
L 281.351258 113.642766 
L 282.257102 238.962917 
L 283.162946 131.364674 
L 284.068791 222.988008 
L 284.974635 176.115212 
L 285.880479 182.482978 
L 286.786323 139.851996 
L 287.692167 228.924373 
L 288.598011 120.783354 
L 289.503856 178.668999 
L 290.4097 210.638193 
L 291.315544 202.370402 
L 292.221388 161.084463 
L 293.127232 206.909121 
L 294.033076 187.603786 
L 294.93892 181.781254 
L 295.844765 187.534673 
L 296.750609 151.289719 
L 297.656453 144.566597 
L 298.562297 224.325427 
L 300.373985 123.394978 
L 301.27983 255.904698 
L 302.185674 178.350286 
L 303.091518 167.551024 
L 303.997362 144.144107 
L 304.903206 216.243242 
L 305.80905 186.857129 
L 306.714894 205.686059 
L 307.620739 93.292744 
L 308.526583 220.177711 
L 309.432427 147.935257 
L 310.338271 238.573578 
L 311.244115 113.097238 
L 312.149959 221.500223 
L 313.055804 147.318346 
L 313.961648 199.413131 
L 314.867492 204.317196 
L 315.773336 131.669875 
L 316.67918 167.907362 
L 317.585024 248.598854 
L 318.490869 104.025674 
L 319.396713 234.397195 
L 320.302557 162.745768 
L 321.208401 212.356582 
L 322.114245 178.335109 
L 323.020089 138.53294 
L 323.925933 211.787656 
L 324.831778 194.261871 
L 325.737622 185.23587 
L 326.643466 181.626108 
L 327.54931 167.921128 
L 328.455154 192.757602 
L 329.360998 196.340837 
L 330.266843 154.093526 
L 331.172687 140.257192 
L 332.078531 251.042943 
L 332.984375 180.121265 
L 333.890219 133.951687 
L 334.796063 162.46312 
L 335.701907 214.606392 
L 336.607752 194.11926 
L 337.513596 166.008934 
L 338.41944 197.708045 
L 339.325284 128.806453 
L 340.231128 198.37567 
L 341.136972 166.532024 
L 342.042817 193.397335 
L 342.948661 170.833307 
L 343.854505 221.862342 
L 344.760349 188.095894 
L 345.666193 172.922714 
L 346.572037 161.833151 
L 347.477881 162.655324 
L 348.383726 215.857628 
L 349.28957 116.518441 
L 350.195414 202.371102 
L 351.101258 208.00051 
L 352.007102 188.332648 
L 352.912946 138.605911 
L 353.818791 220.440331 
L 354.724635 206.462333 
L 355.630479 150.103549 
L 356.536323 144.828885 
L 357.442167 223.478641 
L 358.348011 160.522468 
L 359.253856 215.110823 
L 360.1597 178.977256 
L 361.065544 152.82681 
L 361.971388 190.112913 
L 362.877232 192.662861 
L 363.783076 182.82226 
L 364.68892 137.652246 
L 365.594765 209.20888 
L 366.500609 195.980294 
L 367.406453 187.406211 
L 368.312297 175.896715 
L 369.218141 184.489321 
L 370.123985 142.1574 
L 371.02983 218.962638 
L 371.935674 188.807079 
L 372.841518 169.48038 
L 373.747362 185.467903 
L 374.653206 139.3946 
L 375.55905 230.732415 
L 376.464894 180.098555 
L 377.370739 193.975858 
L 378.276583 169.416859 
L 379.182427 178.384348 
L 380.088271 176.267666 
L 380.994115 211.453042 
L 381.899959 166.461673 
L 382.805804 207.349506 
L 383.711648 152.436641 
L 384.617492 148.435685 
L 385.523336 223.34614 
L 386.42918 188.596831 
L 387.335024 177.017236 
L 388.240869 190.212112 
L 389.146713 123.686731 
L 390.052557 222.160596 
L 390.958401 173.152226 
L 391.864245 192.094429 
L 392.770089 173.050335 
L 393.675933 163.520321 
L 394.581778 213.075551 
L 395.487622 160.998286 
L 396.393466 182.330663 
L 397.29931 190.283988 
L 398.205154 148.784683 
L 399.110998 209.829713 
L 400.016843 187.463997 
L 400.922687 160.276749 
L 401.828531 213.477456 
L 402.734375 193.722488 
L 403.640219 168.801454 
L 404.546063 134.358957 
L 405.451907 213.180073 
L 406.357752 167.440025 
L 407.263596 183.516832 
L 408.16944 213.062565 
L 409.075284 115.185294 
L 409.981128 223.88784 
L 410.886972 188.50684 
L 411.792817 173.152806 
L 412.698661 217.179874 
L 413.604505 99.286754 
L 414.510349 222.126848 
L 415.416193 184.129714 
L 416.322037 161.46693 
L 417.227881 182.652733 
L 418.133726 171.423863 
L 419.03957 186.788403 
L 419.945414 173.275686 
L 420.851258 208.458783 
L 421.757102 142.187336 
L 422.662946 190.374104 
L 423.568791 212.771098 
L 424.474635 175.854099 
L 425.380479 155.710228 
L 426.286323 197.702805 
L 427.192167 191.155259 
L 428.098011 137.976372 
L 429.003856 192.886304 
L 429.9097 201.961904 
L 430.815544 165.801171 
L 431.721388 186.181212 
L 432.627232 194.304093 
L 433.533076 178.63241 
L 434.43892 197.768953 
L 435.344765 177.228783 
L 436.250609 187.203309 
L 437.156453 175.435069 
L 438.062297 184.57676 
L 438.968141 183.452116 
L 439.873985 149.677579 
L 440.77983 197.561204 
L 441.685674 181.229745 
L 442.591518 193.357613 
L 443.497362 151.179548 
L 444.403206 223.85198 
L 445.30905 134.035594 
L 446.214894 201.165632 
L 447.120739 168.697873 
L 448.026583 203.646778 
L 448.932427 176.653042 
L 449.838271 169.342202 
L 450.744115 201.250024 
L 451.649959 152.345148 
L 452.555804 180.054643 
L 453.461648 202.191111 
L 454.367492 163.379997 
L 455.273336 196.830155 
L 456.17918 192.446479 
L 457.990869 176.627389 
L 458.896713 193.792709 
L 459.802557 153.929596 
L 460.708401 191.343572 
L 462.520089 191.099421 
L 463.425933 189.331803 
L 464.331778 148.599631 
L 465.237622 202.111068 
L 466.143466 185.472048 
L 466.143466 185.472048 
" style="fill:none;stroke:#1f77b4;stroke-linecap:square;stroke-width:2.5;"/>
   </g>
   <g id="line2d_11">
    <path clip-path="url(#pd1eac05a36)" d="M 60.325284 257.647048 
L 61.231128 189.338731 
L 62.136972 169.840095 
L 63.042817 171.95564 
L 63.948661 213.51078 
L 64.854505 129.725805 
L 65.760349 196.575459 
L 66.666193 121.694744 
L 67.572037 230.938866 
L 68.477881 146.906565 
L 69.383726 234.447555 
L 70.28957 165.801677 
L 71.195414 198.926897 
L 72.101258 92.377562 
L 73.007102 221.274767 
L 73.912946 155.420917 
L 74.818791 169.675001 
L 75.724635 219.087522 
L 76.630479 189.054587 
L 77.536323 145.998242 
L 78.442167 208.961006 
L 79.348011 215.924303 
L 80.253856 167.627141 
L 81.1597 173.41416 
L 82.065544 153.434146 
L 82.971388 249.571413 
L 83.877232 154.92317 
L 84.783076 179.575201 
L 85.68892 148.804817 
L 86.594765 197.160012 
L 87.500609 162.800708 
L 88.406453 227.082388 
L 89.312297 157.419897 
L 90.218141 215.036894 
L 91.123985 155.04382 
L 92.02983 197.180766 
L 92.935674 180.785766 
L 93.841518 183.054193 
L 94.747362 143.413002 
L 95.653206 223.51391 
L 96.55905 94.486048 
L 97.464894 222.074982 
L 98.370739 240.600923 
L 99.276583 146.607645 
L 100.182427 185.676804 
L 101.088271 136.261145 
L 101.994115 213.538911 
L 102.899959 166.286706 
L 103.805804 179.329141 
L 104.711648 217.771843 
L 105.617492 134.588187 
L 106.523336 178.770723 
L 107.42918 163.316121 
L 108.335024 255.854568 
L 109.240869 138.512214 
L 110.146713 185.055918 
L 111.052557 141.155508 
L 111.958401 196.598553 
L 112.864245 204.192033 
L 113.770089 158.495279 
L 114.675933 209.442391 
L 115.581778 136.085443 
L 116.487622 253.653085 
L 117.393466 170.97533 
L 118.29931 147.205884 
L 119.205154 237.66419 
L 120.110998 132.711769 
L 121.016843 187.651304 
L 121.922687 223.215239 
L 122.828531 134.061878 
L 123.734375 213.212246 
L 124.640219 185.186683 
L 125.546063 171.112389 
L 126.451907 184.332471 
L 127.357752 192.780265 
L 128.263596 178.159908 
L 129.16944 185.123311 
L 130.075284 34.67267 
L 130.981128 262.305326 
L 131.886972 184.596645 
L 132.792817 186.058772 
L 133.698661 112.576221 
L 134.604505 190.879005 
L 135.510349 232.520219 
L 136.416193 213.325345 
L 137.322037 145.681838 
L 138.227881 109.220221 
L 139.133726 232.074158 
L 140.03957 199.635259 
L 140.945414 203.515416 
L 141.851258 157.157058 
L 142.757102 61.491626 
L 143.662946 281.76358 
L 144.568791 84.1534 
L 145.474635 207.505978 
L 146.380479 187.806674 
L 147.286323 189.202705 
L 148.192167 239.468936 
L 149.098011 146.805143 
L 150.003856 119.878182 
L 150.9097 207.347669 
L 151.815544 209.309364 
L 152.721388 85.592747 
L 153.627232 248.816795 
L 154.533076 201.831972 
L 155.43892 171.327824 
L 156.344765 202.544799 
L 157.250609 90.714779 
L 158.156453 246.744145 
L 159.062297 169.551356 
L 159.968141 194.261004 
L 160.873985 161.750196 
L 162.685674 190.087524 
L 163.591518 189.200361 
L 164.497362 195.355626 
L 165.403206 191.300318 
L 166.30905 164.11418 
L 167.214894 217.495875 
L 168.120739 158.445739 
L 169.026583 208.582308 
L 169.932427 166.964584 
L 170.838271 154.381257 
L 171.744115 135.122866 
L 172.649959 188.994702 
L 173.555804 185.023132 
L 174.461648 239.095042 
L 175.367492 126.453818 
L 176.273336 152.043363 
L 177.17918 245.133738 
L 178.085024 179.327883 
L 178.990869 165.669369 
L 179.896713 205.289364 
L 180.802557 171.599652 
L 181.708401 110.772503 
L 182.614245 260.629906 
L 183.520089 147.772013 
L 184.425933 171.511551 
L 185.331778 207.919635 
L 186.237622 183.953524 
L 187.143466 179.663509 
L 188.04931 202.041458 
L 188.955154 75.049847 
L 189.860998 243.925488 
L 190.766843 120.119716 
L 191.672687 208.612345 
L 192.578531 213.957856 
L 193.484375 198.80495 
L 194.390219 151.400108 
L 195.296063 165.547162 
L 196.201907 225.513556 
L 197.107752 131.953089 
L 198.013596 198.587301 
L 198.91944 101.470916 
L 199.825284 208.217087 
L 200.731128 179.550091 
L 201.636972 193.455846 
L 202.542817 213.459562 
L 203.448661 192.165119 
L 204.354505 158.150174 
L 205.260349 194.020914 
L 206.166193 124.661944 
L 207.072037 240.129251 
L 207.977881 161.578083 
L 208.883726 163.031668 
L 209.78957 240.955277 
L 210.695414 143.742883 
L 211.601258 178.240947 
L 212.507102 164.431428 
L 213.412946 153.797899 
L 214.318791 201.384307 
L 215.224635 192.18497 
L 216.130479 221.737442 
L 217.036323 167.210629 
L 217.942167 104.102948 
L 218.848011 223.535343 
L 219.753856 153.556704 
L 220.6597 230.879457 
L 221.565544 175.43134 
L 222.471388 166.670605 
L 223.377232 147.124831 
L 225.18892 245.383361 
L 226.094765 102.885095 
L 227.000609 222.384413 
L 227.906453 198.449075 
L 229.718141 126.910456 
L 230.623985 225.735908 
L 231.52983 114.058958 
L 232.435674 230.208476 
L 233.341518 134.677299 
L 234.247362 219.549218 
L 235.153206 152.933943 
L 236.05905 206.279442 
L 236.964894 164.014968 
L 237.870739 203.894799 
L 238.776583 161.523846 
L 239.682427 170.208715 
L 240.588271 227.50089 
L 241.494115 107.93517 
L 242.399959 231.992608 
L 243.305804 166.611788 
L 244.211648 162.046984 
L 245.117492 223.874488 
L 246.023336 174.033071 
L 246.92918 203.772122 
L 247.835024 189.426903 
L 248.740869 168.893814 
L 249.646713 190.107542 
L 250.552557 173.481468 
L 251.458401 186.31497 
L 252.364245 125.380163 
L 253.270089 206.024801 
L 254.175933 187.896021 
L 255.081778 204.148783 
L 255.987622 168.88159 
L 256.893466 200.211781 
L 257.79931 187.297469 
L 258.705154 172.511395 
L 259.610998 136.369634 
L 260.516843 232.291778 
L 261.422687 130.319192 
L 262.328531 216.3632 
L 263.234375 182.163228 
L 264.140219 181.545159 
L 265.046063 195.652103 
L 265.951907 183.254926 
L 266.857752 128.865755 
L 267.763596 187.117464 
L 268.66944 222.784221 
L 269.575284 137.588326 
L 270.481128 228.938276 
L 271.386972 176.007036 
L 272.292817 136.137367 
L 273.198661 233.315 
L 274.104505 128.790006 
L 275.010349 195.38297 
L 275.916193 215.684502 
L 276.822037 184.711613 
L 277.727881 168.117488 
L 278.633726 185.423946 
L 279.53957 196.842952 
L 280.445414 183.114658 
L 281.351258 113.642766 
L 282.257102 238.962917 
L 283.162946 131.364674 
L 284.068791 222.988008 
L 284.974635 176.115212 
L 285.880479 182.482978 
L 286.786323 139.851996 
L 287.692167 228.924373 
L 288.598011 120.783354 
L 289.503856 178.668999 
L 290.4097 210.638193 
L 291.315544 202.370402 
L 292.221388 161.084463 
L 293.127232 206.909121 
L 294.033076 187.603786 
L 294.93892 181.781254 
L 295.844765 187.534673 
L 296.750609 151.289719 
L 297.656453 144.566597 
L 298.562297 224.325427 
L 300.373985 123.394978 
L 301.27983 255.904698 
L 302.185674 178.350286 
L 303.091518 167.551024 
L 303.997362 144.144107 
L 304.903206 216.243242 
L 305.80905 186.857129 
L 306.714894 205.686059 
L 307.620739 93.292744 
L 308.526583 220.177711 
L 309.432427 147.935257 
L 310.338271 238.573578 
L 311.244115 113.097238 
L 312.149959 221.500223 
L 313.055804 147.318346 
L 313.961648 199.413131 
L 314.867492 204.317196 
L 315.773336 131.669875 
L 316.67918 167.907362 
L 317.585024 248.598854 
L 318.490869 104.025674 
L 319.396713 234.397195 
L 320.302557 162.745768 
L 321.208401 212.356582 
L 322.114245 178.335109 
L 323.020089 138.53294 
L 323.925933 211.787656 
L 324.831778 194.261871 
L 325.737622 185.23587 
L 326.643466 181.626108 
L 327.54931 167.921128 
L 328.455154 192.757602 
L 329.360998 196.340837 
L 330.266843 154.093526 
L 331.172687 140.257192 
L 332.078531 251.042943 
L 332.984375 180.121265 
L 333.890219 133.951687 
L 334.796063 162.46312 
L 335.701907 214.606392 
L 336.607752 194.11926 
L 337.513596 166.008934 
L 338.41944 197.708045 
L 339.325284 128.806453 
L 340.231128 198.37567 
L 341.136972 166.532024 
L 342.042817 193.397335 
L 342.948661 170.833307 
L 343.854505 221.862342 
L 344.760349 188.095894 
L 345.666193 172.922714 
L 346.572037 161.833151 
L 347.477881 162.655324 
L 348.383726 215.857628 
L 349.28957 116.518441 
L 350.195414 202.371102 
L 351.101258 208.00051 
L 352.007102 188.332648 
L 352.912946 138.605911 
L 353.818791 220.440331 
L 354.724635 206.462333 
L 355.630479 150.103549 
L 356.536323 144.828885 
L 357.442167 223.478641 
L 358.348011 160.522468 
L 359.253856 215.110823 
L 360.1597 178.977256 
L 361.065544 152.82681 
L 361.971388 190.112913 
L 362.877232 192.662861 
L 363.783076 182.82226 
L 364.68892 137.652246 
L 365.594765 209.20888 
L 366.500609 195.980294 
L 367.406453 187.406211 
L 368.312297 175.896715 
L 369.218141 184.489321 
L 370.123985 142.1574 
L 371.02983 218.962638 
L 371.935674 188.807079 
L 372.841518 169.48038 
L 373.747362 185.467903 
L 374.653206 139.3946 
L 375.55905 230.732415 
L 376.464894 180.098555 
L 377.370739 193.975858 
L 378.276583 169.416859 
L 379.182427 178.384348 
L 380.088271 176.267666 
L 380.994115 211.453042 
L 381.899959 166.461673 
L 382.805804 207.349506 
L 383.711648 152.436641 
L 384.617492 148.435685 
L 385.523336 223.34614 
L 386.42918 188.596831 
L 387.335024 177.017236 
L 388.240869 190.212112 
L 389.146713 123.686731 
L 390.052557 222.160596 
L 390.958401 173.152226 
L 391.864245 192.094429 
L 392.770089 173.050335 
L 393.675933 163.520321 
L 394.581778 213.075551 
L 395.487622 160.998286 
L 396.393466 182.330663 
L 397.29931 190.283988 
L 398.205154 148.784683 
L 399.110998 209.829713 
L 400.016843 187.463997 
L 400.922687 160.276749 
L 401.828531 213.477456 
L 402.734375 193.722488 
L 403.640219 168.801454 
L 404.546063 134.358957 
L 405.451907 213.180073 
L 406.357752 167.440025 
L 407.263596 183.516832 
L 408.16944 213.062565 
L 409.075284 115.185294 
L 409.981128 223.88784 
L 410.886972 188.50684 
L 411.792817 173.152806 
L 412.698661 217.179874 
L 413.604505 99.286754 
L 414.510349 222.126848 
L 415.416193 184.129714 
L 416.322037 161.46693 
L 417.227881 182.652733 
L 418.133726 171.423863 
L 419.03957 186.788403 
L 419.945414 173.275686 
L 420.851258 208.458783 
L 421.757102 142.187336 
L 422.662946 190.374104 
L 423.568791 212.771098 
L 424.474635 175.854099 
L 425.380479 155.710228 
L 426.286323 197.702805 
L 427.192167 191.155259 
L 428.098011 137.976372 
L 429.003856 192.886304 
L 429.9097 201.961904 
L 430.815544 165.801171 
L 431.721388 186.181212 
L 432.627232 194.304093 
L 433.533076 178.63241 
L 434.43892 197.768953 
L 435.344765 177.228783 
L 436.250609 187.203309 
L 437.156453 175.435069 
L 438.062297 184.57676 
L 438.968141 183.452116 
L 439.873985 149.677579 
L 440.77983 197.561204 
L 441.685674 181.229745 
L 442.591518 193.357613 
L 443.497362 151.179548 
L 444.403206 223.85198 
L 445.30905 134.035594 
L 446.214894 201.165632 
L 447.120739 168.697873 
L 448.026583 203.646778 
L 448.932427 176.653042 
L 449.838271 169.342202 
L 450.744115 201.250024 
L 451.649959 152.345148 
L 452.555804 180.054643 
L 453.461648 202.191111 
L 454.367492 163.379997 
L 455.273336 196.830155 
L 456.17918 192.446479 
L 457.990869 176.627389 
L 458.896713 193.792709 
L 459.802557 153.929596 
L 460.708401 191.343572 
L 462.520089 191.099421 
L 463.425933 189.331803 
L 464.331778 148.599631 
L 465.237622 202.111068 
L 466.143466 185.472048 
L 466.143466 185.472048 
" style="fill:none;stroke:#ff7f0e;stroke-linecap:square;stroke-width:2.5;"/>
   </g>
   <g id="patch_3">
    <path d="M 40.034375 294.118125 
L 40.034375 22.318125 
" style="fill:none;stroke:#000000;stroke-linecap:square;stroke-linejoin:miter;stroke-width:0.8;"/>
   </g>
   <g id="patch_4">
    <path d="M 40.034375 294.118125 
L 486.434375 294.118125 
" style="fill:none;stroke:#000000;stroke-linecap:square;stroke-linejoin:miter;stroke-width:0.8;"/>
   </g>
   <g id="text_11">
    <!-- Teste -->
    <defs>
     <path d="M 44.28125 53.078125 
L 44.28125 44.578125 
Q 40.484375 46.53125 36.375 47.5 
Q 32.28125 48.484375 27.875 48.484375 
Q 21.1875 48.484375 17.84375 46.4375 
Q 14.5 44.390625 14.5 40.28125 
Q 14.5 37.15625 16.890625 35.375 
Q 19.28125 33.59375 26.515625 31.984375 
L 29.59375 31.296875 
Q 39.15625 29.25 43.1875 25.515625 
Q 47.21875 21.78125 47.21875 15.09375 
Q 47.21875 7.46875 41.1875 3.015625 
Q 35.15625 -1.421875 24.609375 -1.421875 
Q 20.21875 -1.421875 15.453125 -0.5625 
Q 10.6875 0.296875 5.421875 2 
L 5.421875 11.28125 
Q 10.40625 8.6875 15.234375 7.390625 
Q 20.0625 6.109375 24.8125 6.109375 
Q 31.15625 6.109375 34.5625 8.28125 
Q 37.984375 10.453125 37.984375 14.40625 
Q 37.984375 18.0625 35.515625 20.015625 
Q 33.0625 21.96875 24.703125 23.78125 
L 21.578125 24.515625 
Q 13.234375 26.265625 9.515625 29.90625 
Q 5.8125 33.546875 5.8125 39.890625 
Q 5.8125 47.609375 11.28125 51.796875 
Q 16.75 56 26.8125 56 
Q 31.78125 56 36.171875 55.265625 
Q 40.578125 54.546875 44.28125 53.078125 
z
" id="DejaVuSans-115"/>
     <path d="M 18.3125 70.21875 
L 18.3125 54.6875 
L 36.8125 54.6875 
L 36.8125 47.703125 
L 18.3125 47.703125 
L 18.3125 18.015625 
Q 18.3125 11.328125 20.140625 9.421875 
Q 21.96875 7.515625 27.59375 7.515625 
L 36.8125 7.515625 
L 36.8125 0 
L 27.59375 0 
Q 17.1875 0 13.234375 3.875 
Q 9.28125 7.765625 9.28125 18.015625 
L 9.28125 47.703125 
L 2.6875 47.703125 
L 2.6875 54.6875 
L 9.28125 54.6875 
L 9.28125 70.21875 
z
" id="DejaVuSans-116"/>
    </defs>
    <g transform="translate(247.728125 16.318125)scale(0.12 -0.12)">
     <use xlink:href="#DejaVuSans-84"/>
     <use x="44.083984" xlink:href="#DejaVuSans-101"/>
     <use x="105.607422" xlink:href="#DejaVuSans-115"/>
     <use x="157.707031" xlink:href="#DejaVuSans-116"/>
     <use x="196.916016" xlink:href="#DejaVuSans-101"/>
    </g>
   </g>
   <g id="legend_1">
    <g id="patch_5">
     <path d="M 493.434375 174.39625 
L 560.81875 174.39625 
Q 562.81875 174.39625 562.81875 172.39625 
L 562.81875 144.04 
Q 562.81875 142.04 560.81875 142.04 
L 493.434375 142.04 
Q 491.434375 142.04 491.434375 144.04 
L 491.434375 172.39625 
Q 491.434375 174.39625 493.434375 174.39625 
z
" style="fill:#ffffff;opacity:0.8;stroke:#cccccc;stroke-linejoin:miter;"/>
    </g>
    <g id="line2d_12">
     <path d="M 495.434375 150.138438 
L 515.434375 150.138438 
" style="fill:none;stroke:#1f77b4;stroke-linecap:square;stroke-width:2.5;"/>
    </g>
    <g id="line2d_13"/>
    <g id="text_12">
     <!-- Teste -->
     <g transform="translate(523.434375 153.638438)scale(0.1 -0.1)">
      <use xlink:href="#DejaVuSans-84"/>
      <use x="44.083984" xlink:href="#DejaVuSans-101"/>
      <use x="105.607422" xlink:href="#DejaVuSans-115"/>
      <use x="157.707031" xlink:href="#DejaVuSans-116"/>
      <use x="196.916016" xlink:href="#DejaVuSans-101"/>
     </g>
    </g>
    <g id="line2d_14">
     <path d="M 495.434375 164.816563 
L 515.434375 164.816563 
" style="fill:none;stroke:#ff7f0e;stroke-linecap:square;stroke-width:2.5;"/>
    </g>
    <g id="line2d_15"/>
    <g id="text_13">
     <!-- Teste 2 -->
     <defs>
      <path id="DejaVuSans-32"/>
     </defs>
     <g transform="translate(523.434375 168.316563)scale(0.1 -0.1)">
      <use xlink:href="#DejaVuSans-84"/>
      <use x="44.083984" xlink:href="#DejaVuSans-101"/>
      <use x="105.607422" xlink:href="#DejaVuSans-115"/>
      <use x="157.707031" xlink:href="#DejaVuSans-116"/>
      <use x="196.916016" xlink:href="#DejaVuSans-101"/>
      <use x="258.439453" xlink:href="#DejaVuSans-32"/>
      <use x="290.226562" xlink:href="#DejaVuSans-50"/>
     </g>
    </g>
   </g>
  </g>
 </g>
 <defs>
  <clipPath id="pd1eac05a36">
   <rect height="271.8" width="446.4" x="40.034375" y="22.318125"/>
  </clipPath>
 </defs>
</svg>
